<?xml version="1.0" encoding="UTF-8" standalone="no"?>
<!DOCTYPE svg PUBLIC "-//W3C//DTD SVG 1.1//EN"
 "http://www.w3.org/Graphics/SVG/1.1/DTD/svg11.dtd">
<!-- Generated by graphviz version 2.40.1 (20161225.0304)
 -->
<!-- Title: G Pages: 1 -->
<svg width="505pt" height="406pt"
 viewBox="0.00 0.00 505.00 406.00" xmlns="http://www.w3.org/2000/svg" xmlns:xlink="http://www.w3.org/1999/xlink">
<g id="graph0" class="graph" transform="scale(1 1) rotate(0) translate(4 402)">
<title>G</title>
<polygon fill="#23272a" stroke="transparent" points="-4,4 -4,-402 501,-402 501,4 -4,4"/>
<g id="clust1" class="cluster">
<title>cluster_family_0</title>
<polygon fill="#2c2f33" stroke="#2c2f33" points="8,-153 8,-390 489,-390 489,-153 8,-153"/>
<text text-anchor="start" x="16" y="-372.6" font-family="Helvetica, Arial, sans-serif" font-weight="bold" font-size="16.00" fill="#ffffff">House A</text>
</g>
<g id="clust5" class="cluster">
<title>cluster_family_1</title>
<polygon fill="#2c2f33" stroke="#2c2f33" points="8,-8 8,-145 489,-145 489,-8 8,-8"/>
<text text-anchor="start" x="16" y="-127.6" font-family="Helvetica, Arial, sans-serif" font-weight="bold" font-size="16.00" fill="#ffffff">House B</text>
</g>
<!-- union_0 -->
<g id="node1" class="node">
<title>union_0</title>
<ellipse fill="#d25252" stroke="#ffffff" cx="230.5" cy="-251" rx="3.5" ry="3.5"/>
</g>
<!-- siblings_0 -->
<g id="node5" class="node">
<title>siblings_0</title>
<polygon fill="#d25252" stroke="#cccccc" stroke-width="0" points="270,-251.5 263,-251.5 263,-250.5 270,-250.5 270,-251.5"/>
</g>
<!-- union_0&#45;&gt;siblings_0 -->
<g id="edge5" class="edge">
<title>union_0&#45;&gt;siblings_0</title>
<path fill="none" stroke="#d25252" d="M234.0834,-251C240.9128,-251 255.7324,-251 262.7154,-251"/>
</g>
<!-- Parent 1 -->
<g id="node2" class="node">
<title>Parent 1</title>
<g id="a_node2"><a xlink:title="undefined &#10;Born 1904 &#160;&#45;&#45; died 1999&#10;&#10;">
<polygon fill="#f4f4f4" stroke="#cccccc" stroke-width="0" points="198,-353 18,-353 18,-297 198,-297 198,-353"/>
<text text-anchor="start" x="53.6529" y="-334.4" font-family="Helvetica, Arial, sans-serif" font-size="14.00" fill="#ffffff">Parent 1 Name ♂</text>
<text text-anchor="start" x="65.439" y="-320" font-family="Helvetica, Arial, sans-serif" font-size="10.00" fill="#aaaaaa">Parent 1 Full Name</text>
<text text-anchor="start" x="73.2035" y="-306" font-family="Helvetica, Arial, sans-serif" font-size="10.00" fill="#aaaaaa">*1904 — †1999</text>
</a>
</g>
</g>
<!-- Parent 1&#45;&gt;union_0 -->
<g id="edge1" class="edge">
<title>Parent 1&#45;&gt;union_0</title>
<path fill="none" stroke="#d25252" d="M198.0383,-310C216.7943,-310 231,-310 231,-310 231,-310 231,-267.2156 231,-254.514"/>
</g>
<!-- Parent 2 -->
<g id="node3" class="node">
<title>Parent 2</title>
<g id="a_node3"><a xlink:title="undefined &#10;Born 1909 &#10;&#10;">
<polygon fill="#36393f" stroke="#cccccc" points="198,-279 18,-279 18,-223 198,-223 198,-279"/>
<text text-anchor="start" x="53.6529" y="-260.4" font-family="Helvetica, Arial, sans-serif" font-size="14.00" fill="#ffffff">Parent 2 Name ♀</text>
<text text-anchor="start" x="65.439" y="-246" font-family="Helvetica, Arial, sans-serif" font-size="10.00" fill="#aaaaaa">Parent 2 Full Name</text>
<text text-anchor="start" x="95.4375" y="-232" font-family="Helvetica, Arial, sans-serif" font-size="10.00" fill="#aaaaaa">*1909</text>
</a>
</g>
</g>
<!-- Parent 2&#45;&gt;union_0 -->
<g id="edge2" class="edge">
<title>Parent 2&#45;&gt;union_0</title>
<path fill="none" stroke="#d25252" d="M198.3146,-249.8333C211.2245,-249.8333 221.8918,-249.8333 227.0877,-249.8333"/>
</g>
<!-- Parent 2&#45;&gt;union_0 -->
<g id="edge3" class="edge">
<title>Parent 2&#45;&gt;union_0</title>
<path fill="none" stroke="#d25252" stroke-dasharray="5,2" d="M198.3146,-252.1667C211.2245,-252.1667 221.8918,-252.1667 227.0877,-252.1667"/>
</g>
<!-- Parent 4 -->
<g id="node4" class="node">
<title>Parent 4</title>
<g id="a_node4"><a xlink:title="undefined &#10; Died 1955&#10;&#10;">
<polygon fill="#f4f4f4" stroke="#cccccc" stroke-width="0" points="198,-205 18,-205 18,-163 198,-163 198,-205"/>
<text text-anchor="start" x="81.5456" y="-186.4" font-family="Helvetica, Arial, sans-serif" font-size="14.00" fill="#ffffff">Parent 4</text>
<text text-anchor="start" x="92.7135" y="-172" font-family="Helvetica, Arial, sans-serif" font-size="10.00" fill="#aaaaaa">†1955</text>
</a>
</g>
</g>
<!-- Parent 4&#45;&gt;union_0 -->
<g id="edge4" class="edge">
<title>Parent 4&#45;&gt;union_0</title>
<path fill="none" stroke="#d25252" stroke-dasharray="5,2" d="M198.1165,-192C217.3477,-192 232,-192 232,-192 232,-192 232,-235.573 232,-247.8279"/>
</g>
<!-- union_1 -->
<g id="node9" class="node">
<title>union_1</title>
<ellipse fill="#ccdf32" stroke="#ffffff" cx="230.5" cy="-90" rx="3.5" ry="3.5"/>
</g>
<!-- Parent 4&#45;&gt;union_1 -->
<g id="edge9" class="edge">
<title>Parent 4&#45;&gt;union_1</title>
<path fill="none" stroke="#ccdf32" d="M198.2644,-171C216.3914,-171 230,-171 230,-171 230,-171 230,-108.9844 230,-93.4805"/>
</g>
<!-- Child 1 -->
<g id="node6" class="node">
<title>Child 1</title>
<polygon fill="#36393f" stroke="#cccccc" points="479,-215 299,-215 299,-179 479,-179 479,-215"/>
<text text-anchor="middle" x="389" y="-192.8" font-family="Helvetica, Arial, sans-serif" font-size="14.00" fill="#ffffff">Child 1</text>
</g>
<!-- siblings_0&#45;&gt;Child 1 -->
<g id="edge6" class="edge">
<title>siblings_0&#45;&gt;Child 1</title>
<path fill="none" stroke="#d25252" d="M267,-250.2884C267,-244.844 267,-210 267,-210 267,-210 288.7356,-210 288.7356,-210"/>
<polygon fill="#d25252" stroke="#d25252" points="296.7355,-200 296.7357,-220 292.7357,-220.0001 292.7355,-200.0001 296.7355,-200"/>
<polyline fill="none" stroke="#d25252" points="298.7356,-210 288.7356,-210.0001 "/>
</g>
<!-- Child 2 -->
<g id="node7" class="node">
<title>Child 2</title>
<polygon fill="#36393f" stroke="#cccccc" points="479,-269 299,-269 299,-233 479,-233 479,-269"/>
<text text-anchor="middle" x="389" y="-246.8" font-family="Helvetica, Arial, sans-serif" font-size="14.00" fill="#ffffff">Child 2</text>
</g>
<!-- siblings_0&#45;&gt;Child 2 -->
<g id="edge7" class="edge">
<title>siblings_0&#45;&gt;Child 2</title>
<path fill="none" stroke="#d25252" d="M270.0341,-251C270.0341,-251 288.8106,-251 288.8106,-251"/>
<polygon fill="#d25252" stroke="#d25252" points="296.8105,-241 296.8107,-261 292.8107,-261.0001 292.8105,-241.0001 296.8105,-241"/>
<polyline fill="none" stroke="#d25252" points="298.8106,-251 288.8106,-251.0001 "/>
</g>
<!-- Child 3 -->
<g id="node8" class="node">
<title>Child 3</title>
<polygon fill="#36393f" stroke="#cccccc" points="479,-323 299,-323 299,-287 479,-287 479,-323"/>
<text text-anchor="middle" x="389" y="-300.8" font-family="Helvetica, Arial, sans-serif" font-size="14.00" fill="#ffffff">Child 3</text>
</g>
<!-- siblings_0&#45;&gt;Child 3 -->
<g id="edge8" class="edge">
<title>siblings_0&#45;&gt;Child 3</title>
<path fill="none" stroke="#d25252" d="M267,-251.7116C267,-257.156 267,-292 267,-292 267,-292 288.7356,-292 288.7356,-292"/>
<polygon fill="#d25252" stroke="#d25252" points="296.7355,-282 296.7357,-302 292.7357,-302.0001 292.7355,-282.0001 296.7355,-282"/>
<polyline fill="none" stroke="#d25252" points="298.7356,-292 288.7356,-292.0001 "/>
</g>
<!-- siblings_1 -->
<g id="node11" class="node">
<title>siblings_1</title>
<polygon fill="#ccdf32" stroke="#cccccc" stroke-width="0" points="270,-90.5 263,-90.5 263,-89.5 270,-89.5 270,-90.5"/>
</g>
<!-- union_1&#45;&gt;siblings_1 -->
<g id="edge11" class="edge">
<title>union_1&#45;&gt;siblings_1</title>
<path fill="none" stroke="#ccdf32" d="M234.0834,-90C240.9128,-90 255.7324,-90 262.7154,-90"/>
</g>
<!-- Parent 5 -->
<g id="node10" class="node">
<title>Parent 5</title>
<polygon fill="#36393f" stroke="#cccccc" points="198,-108 18,-108 18,-72 198,-72 198,-108"/>
<text text-anchor="middle" x="108" y="-85.8" font-family="Helvetica, Arial, sans-serif" font-size="14.00" fill="#ffffff">Parent 5</text>
</g>
<!-- Parent 5&#45;&gt;union_1 -->
<g id="edge10" class="edge">
<title>Parent 5&#45;&gt;union_1</title>
<path fill="none" stroke="#ccdf32" d="M198.3146,-90C210.9376,-90 221.4166,-90 226.7333,-90"/>
</g>
<!-- Child 6 -->
<g id="node12" class="node">
<title>Child 6</title>
<polygon fill="#36393f" stroke="#cccccc" points="479,-54 299,-54 299,-18 479,-18 479,-54"/>
<text text-anchor="middle" x="389" y="-31.8" font-family="Helvetica, Arial, sans-serif" font-size="14.00" fill="#ffffff">Child 6</text>
</g>
<!-- siblings_1&#45;&gt;Child 6 -->
<g id="edge12" class="edge">
<title>siblings_1&#45;&gt;Child 6</title>
<path fill="none" stroke="#ccdf32" d="M267,-89.3936C267,-83.4609 267,-36 267,-36 267,-36 288.7356,-36 288.7356,-36"/>
<polygon fill="#ccdf32" stroke="#ccdf32" points="296.7355,-26 296.7357,-46 292.7357,-46.0001 292.7355,-26.0001 296.7355,-26"/>
<polyline fill="none" stroke="#ccdf32" points="298.7356,-36 288.7356,-36.0001 "/>
</g>
<!-- Child 5 -->
<g id="node13" class="node">
<title>Child 5</title>
<polygon fill="#36393f" stroke="#cccccc" points="479,-108 299,-108 299,-72 479,-72 479,-108"/>
<text text-anchor="middle" x="389" y="-85.8" font-family="Helvetica, Arial, sans-serif" font-size="14.00" fill="#ffffff">Child 5</text>
</g>
<!-- siblings_1&#45;&gt;Child 5 -->
<g id="edge13" class="edge">
<title>siblings_1&#45;&gt;Child 5</title>
<path fill="none" stroke="#ccdf32" stroke-dasharray="5,2" d="M270.0341,-90C270.0341,-90 288.8106,-90 288.8106,-90"/>
<polygon fill="#ccdf32" stroke="#ccdf32" points="296.8105,-80 296.8107,-100 292.8107,-100.0001 292.8105,-80.0001 296.8105,-80"/>
<polyline fill="none" stroke="#ccdf32" points="298.8106,-90 288.8106,-90.0001 "/>
</g>
</g>
</svg>
